<svg xmlns="http://www.w3.org/2000/svg" width="460" height="80" viewBox="0 0 230 40">
  <g fill="none" fill-rule="evenodd">
    <path d="M166.923 10.65l-2.238 8.65c-1.23-.433-2.388-1.063-3.69-1.304-2.977-.652-5.707.53-7.48 2.825-1.646 2.198-2.68 4.686-2.73 7.559 0 .942.443 1.787 1.18 2.368 2.88 1.498 6.126-.048 8.784-.847-1.23 2.876-3.97 8.688-3.97 8.688-4.405 1.063-10.987 2.35-14.04-1.948-2.287-3.864-.958-8.743.346-12.607 2.214-6.57 7.528-14.128 15.45-14.465 2.853 0 5.949.083 8.388 1.081M228.419 11.306c-.566-.894-1.573-1.4-2.534-1.666-4.31-.995-8.093.563-11.052 3.912-.516-1.762-1.29-3.378-3.068-3.839-4.842-1.183-8.25 1.389-9.306 2.396-.472.451-.952.891-1.469 1.323.002-.014 1-3.348 1-3.348l-8.176.002-2.223 6.364-3.542 10.095-3.198 9.032c-.369 1.064-.803 2.315-1.147 3.401l8.621.003c1.683-4.862 4.704-13.58 5.58-15.88 1.231-3.236 3.232-5.85 5.324-5.107 2.144.76.284 5.407-.199 6.765l-5.055 14.224 8.71.004c1.658-4.798 4.784-13.82 5.679-16.167 1.231-3.237 3.232-5.85 5.321-5.108 2.145.76.286 5.41-.198 6.766l-5.156 14.511 8.495.003s5.403-14.983 7.913-22.347c.466-1.692.713-3.794-.32-5.339" fill="#D11141"></path>
    <path d="M225.734 37.123h.554c.108 0 .213-.004.32-.011a.86.86 0 0 0 .277-.06.463.463 0 0 0 .196-.154.508.508 0 0 0 .07-.294.475.475 0 0 0-.064-.26.42.42 0 0 0-.167-.15.754.754 0 0 0-.235-.065 2.622 2.622 0 0 0-.257-.014h-.694v1.008zm-.446-1.405h1.178c.387 0 .673.072.856.216.185.144.277.376.277.693 0 .282-.084.489-.247.621-.164.13-.127.11-.352.234l.672 1.39h-.484l-.628-1.353h-.826v1.354h-.446v-3.155zm-1.313 1.575a2.259 2.259 0 0 0 .687 1.64c.213.209.462.374.743.493.285.119.59.177.918.177a2.335 2.335 0 0 0 1.662-.673 2.286 2.286 0 0 0 .686-1.667 2.273 2.273 0 0 0-.686-1.65 2.357 2.357 0 0 0-1.662-.662c-.327 0-.633.06-.918.18-.28.119-.53.281-.743.488a2.248 2.248 0 0 0-.504.74 2.373 2.373 0 0 0-.183.934zm-.446 0c0-.39.073-.753.225-1.087a2.719 2.719 0 0 1 1.488-1.441c.34-.14.698-.209 1.08-.209.379 0 .74.07 1.077.209.344.137.638.328.892.57.254.24.456.527.605.856.148.33.222.687.222 1.072 0 .39-.074.753-.222 1.087-.15.333-.351.622-.605.868a2.8 2.8 0 0 1-.892.574 2.808 2.808 0 0 1-1.076.208c-.383 0-.742-.07-1.081-.208a2.869 2.869 0 0 1-.887-.57 2.709 2.709 0 0 1-.601-.859 2.523 2.523 0 0 1-.225-1.07z" fill="#0A0B09"></path>
    <path d="M175.784 32.478s-5.653 2.62-6.17 0c-.738-3.745 8.3-5.922 8.3-5.922l-2.13 5.922zm14.262-20.222c-.769-1.41-2.28-2.141-3.718-2.459-3.967-.752-8.105 0-11.825.779-.246.074-2.377.537-3.12.805-.993 2.333-2.108 4.623-3.025 6.981 1.76-.609 3.544-1.362 5.428-1.872.249-.075.52-.148.793-.219 1.785-.342 3.917-.902 5.677-.267.322.193.595.51.668.85.1 1.143-.57 2.166-1.536 2.798-1.71 1.071-3.668 1.485-5.602 1.946a29.65 29.65 0 0 0-2.628.682c-4.114 1.07-8.277 3.892-9.764 8.054-.471 1.215-.893 2.7-.943 4.16v.268c.025 1.265.397 2.505 1.365 3.454 3.221 2.921 8.15 1.118 11.769.145.01.052.053.66.053.66h8.7c.496-1.557 1.113-3.067 1.635-4.623l5.206-14.844c.495-1.532 1.263-3.26 1.337-4.963v-.436a4.845 4.845 0 0 0-.47-1.899z" fill="#D11141"></path>
    <path d="M144.968 19.199a5.443 5.443 0 0 1-.55-.198c-2.06-.88-4.308.01-5.834 1.24-1.465 1.418-2.067 1.941-3.397 4.929-.641 1.44-4.912 13.805-4.912 13.805-2.78 0-8.616.01-8.616.01l3.936-11.063c.81-2.415 1.696-4.854 2.557-7.318l3.635-10.28 8.256-.01s-.723 1.86-.867 2.813l.004.007c2.235-1.991 5.149-4.394 8.377-3.195 0 0-1.73 6.195-2.589 9.26M118.983 21.337l-.036.084s-7.27-.008-7.263-.005c.023-.779 1.97-3.673 3.713-4.443.5-.216 1.198-.496 1.741-.495.782.02 1.568.144 2.019.819.72 1.202.248 2.814-.174 4.04m8.269-7.578c-1.893-3.68-6.402-4.089-10.288-3.583-.447.073-.922.169-1.37.264-6.378 1.54-11.333 7.337-13.601 13.063-.897 2.43-1.843 5.124-1.993 7.819v1.42c.05 1.105.3 2.214.723 3.295 1.295 2.742 4.36 3.754 7.298 3.945 2.567.072 5.132-.071 7.573-.481a29.629 29.629 0 0 0 2.94-.65c1.32-2.573 3.769-7.992 3.769-7.992-.773.169-1.551.511-2.324.703-1.323.337-2.866.794-4.385 1.034-1.894.265-3.813.195-5.356-.937-1.145-.892-1.245-2.406-1.022-3.754.15-.385.15-.866.5-1.155l15.851-.007c.97-2.744 2.356-5.838 2.433-8.894v-.673a8.885 8.885 0 0 0-.748-3.417M100.612 9.432c-.05.172.049.27.196.247 1.64.024 4.75-.004 4.75-.004s-1.762 5.27-2.668 7.76c0 0-3.306.015-4.996.087l-.196.37-3.6 10.534c-.216.741-.415 1.604.026 2.246.856 1.011 2.264.578 3.305.345.547-.122 1.053-.297 1.567-.444-1.2 2.712-2.474 5.427-3.697 8.09-.563.42-1.297.47-1.958.619-2.793.517-6.465 1.06-8.84-.765-1.615-1.679-.979-4.317-.392-6.292 3.258-9.225 6.44-18.6 9.673-27.802 0 0 6.201-1.586 9.286-2.227l-2.456 7.236M89.13 9.988c-.539 2.64-1.99 8.029-1.99 8.029-1.908-1.086-4.302-1.542-6.675-1.172a2.426 2.426 0 0 0-1.667 1.137c-.855 2.046 1.291 3.445 2.383 4.95 1.818 2.508 2.44 6.05 1.268 8.89-1.643 4.883-6.808 7.67-11.68 7.844-2.865.098-5.671-.385-8.168-1.176l1.964-8.608s.256.146.33.181c2.325 1.48 5.358 2.646 8.149 1.387.663-.345 1.103-1.01 1.129-1.726-.197-1.875-1.912-3.182-2.866-4.76-1.59-2.122-2.154-5.28-1.15-7.848.954-3.255 3.917-6.61 7.247-7.498 3.647-1.233 8.128-.517 11.726.37M54.187 32.401s-5.651 2.62-6.168 0c-.737-3.746 8.3-5.924 8.3-5.924L54.188 32.4zM68.45 12.178c-.768-1.412-2.28-2.141-3.718-2.458-3.967-.753-8.104 0-11.823.78-.249.072-2.378.535-3.121.801-.993 2.337-2.108 4.624-3.025 6.984 1.76-.609 3.545-1.364 5.426-1.874.25-.073.522-.146.793-.22 1.785-.339 3.919-.9 5.677-.266.322.195.596.511.67.851.1 1.145-.57 2.166-1.537 2.799-1.711 1.07-3.668 1.484-5.603 1.944-.892.196-1.784.414-2.627.683-4.114 1.07-8.277 3.893-9.763 8.054-.471 1.217-.893 2.7-.943 4.16v.267c.023 1.266.397 2.507 1.365 3.456 3.22 2.92 8.15 1.117 11.768.144.01.053.054.66.054.66h8.699c.495-1.558 1.115-3.067 1.636-4.623l5.205-14.843c.495-1.534 1.263-3.26 1.338-4.963v-.44a4.835 4.835 0 0 0-.471-1.896zM26.588.44l-3.123 23.635L37.445.451 49.98.44s-9.169 25.805-13.714 38.538h-8.002c.894-2.533 9.33-26.516 9.33-26.516L21.923 38.977H13.75l3.31-26.392-9.72 26.392H.001L13.851.451 26.587.44" fill="#FFF"></path>
  </g>
</svg>