<svg version="1.1" id="header-logo" xmlns="http://www.w3.org/2000/svg" xmlns:xlink="http://www.w3.org/1999/xlink" x="0px" y="0px" viewBox="0 0 864 864" style="enable-background:new 0 0 864 864;" xml:space="preserve">
<style type="text/css">
	.st0{fill:#ffffff;}
</style>
<g>
	<path class="st0" d="M369.55,536.87c10.06-26.67,19.61-51.98,29.32-77.72c36.87,0,73.32,0,110.86,0
		c-36.46-96.7-72.57-192.48-108.95-288.97c26.15,0,51.4,0,77.62,0C538.97,330.79,599.7,491.81,660.7,653.55c-26.3,0-51.56,0-77.59,0
		c-14.59-38.6-29.24-77.38-44.09-116.68C482.85,536.87,426.98,536.87,369.55,536.87z"></path>
	<path class="st0" d="M280.93,653.57c-26.08,0-51.35,0-77.63,0c24.58-65.17,48.9-129.65,73.15-193.95c26.05,0,51.33,0,77.61,0
		C329.55,524.63,305.29,588.97,280.93,653.57z"></path>
	<path class="st0" d="M369.06,419.88c-25.77,0-51.04,0-77.58,0c11.09-29.46,21.88-58.1,32.74-86.95c25.76,0,51.17,0,77.61,0
		C390.73,362.39,379.93,391.05,369.06,419.88z"></path>
	<path class="st0" d="M432,36.72c53.38,0,105.14,10.45,153.85,31.05c47.07,19.91,89.34,48.41,125.66,84.73
		c36.31,36.31,64.82,78.59,84.73,125.66c20.6,48.71,31.05,100.47,31.05,153.85s-10.45,105.14-31.05,153.85
		c-19.91,47.07-48.41,89.34-84.73,125.66c-36.31,36.31-78.59,64.82-125.66,84.73c-48.71,20.6-100.47,31.05-153.85,31.05
		s-105.14-10.45-153.85-31.05c-47.07-19.91-89.34-48.41-125.66-84.73s-64.82-78.59-84.73-125.66
		C47.17,537.14,36.72,485.38,36.72,432s10.45-105.14,31.05-153.85c19.91-47.07,48.41-89.34,84.73-125.66s78.59-64.82,125.66-84.73
		C326.86,47.17,378.62,36.72,432,36.72 M432,0C193.41,0,0,193.41,0,432s193.41,432,432,432s432-193.41,432-432S670.59,0,432,0L432,0
		z"></path>
	<g>
		<path class="st0" d="M798.71,770.58c4.8,0,9.49,1.23,14.06,3.69c4.57,2.46,8.13,5.99,10.69,10.57c2.55,4.58,3.83,9.37,3.83,14.34
			c0,4.93-1.26,9.66-3.77,14.21s-6.04,8.08-10.57,10.59c-4.53,2.51-9.28,3.77-14.23,3.77c-4.95,0-9.69-1.26-14.23-3.77
			c-4.53-2.51-8.07-6.04-10.59-10.59s-3.79-9.28-3.79-14.21c0-4.98,1.28-9.76,3.85-14.34s6.13-8.11,10.7-10.57
			C789.22,771.81,793.91,770.58,798.71,770.58z M798.71,775.32c-4.02,0-7.92,1.03-11.73,3.09c-3.8,2.06-6.78,5-8.92,8.83
			c-2.15,3.83-3.22,7.81-3.22,11.95c0,4.12,1.06,8.06,3.16,11.84c2.11,3.78,5.06,6.72,8.85,8.83c3.79,2.11,7.74,3.16,11.86,3.16
			s8.07-1.05,11.86-3.16s6.73-5.05,8.83-8.83c2.1-3.78,3.14-7.72,3.14-11.84c0-4.14-1.07-8.13-3.2-11.95
			c-2.14-3.83-5.11-6.77-8.92-8.83C806.6,776.35,802.7,775.32,798.71,775.32z M786.17,814.99v-30.77h10.57
			c3.61,0,6.23,0.28,7.84,0.85c1.62,0.57,2.9,1.56,3.86,2.97c0.96,1.41,1.44,2.92,1.44,4.51c0,2.25-0.8,4.21-2.41,5.87
			c-1.6,1.67-3.73,2.6-6.38,2.8c1.09,0.45,1.96,1,2.61,1.63c1.24,1.21,2.75,3.25,4.55,6.1l3.75,6.02h-6.06l-2.73-4.85
			c-2.15-3.82-3.88-6.2-5.19-7.16c-0.91-0.71-2.24-1.06-3.98-1.06h-2.92v13.07H786.17z M791.13,797.67h6.02
			c2.88,0,4.84-0.43,5.89-1.29c1.05-0.86,1.57-2,1.57-3.41c0-0.91-0.25-1.72-0.76-2.44s-1.21-1.26-2.1-1.61
			c-0.9-0.35-2.56-0.53-4.98-0.53h-5.65V797.67z"></path>
	</g>
</g>
</svg>