<?xml version="1.0" encoding="UTF-8"?><svg xmlns="http://www.w3.org/2000/svg" viewBox="0 0 1859 543.017"><defs><style>.ae{fill:#fff;}.af{fill:#3a3790;}</style></defs><g id="a"><path id="b" class="ae" d="m0,120.251v17.75h497.178c12.3-6.223,19.693-17.098,18.71-27.441-1.12-11.776-12.697-18.655-14.469-19.708-16.4-9.744-28.659,2.28-44.529-6.735-9.627-5.469-16.672-16.46-17.462-27.94.296-20.675,9.806-28.018,20.58-34.177,0,0,175.992,0,175.992,0V1.001h-187.074c-32.607,14.097-43.867,58.019-23.259,86.75,19.917,27.677,57.684,14.49,66.843,22.656,2.389,5.037-.317,7.164-2.853,8.664-163.219.393-326.438.787-489.657,1.181Z"/><path id="c" class="ae" d="m572,30.001h-105.908c-9.417,5.497-28.75,27.346-5.761,40.837,20.007,14.293,37.907,1.991,51.985,15.283,10.996,12.273,13.449,26.404,9.647,40.211-5.19,14.512-20.204,19.836-22.675,20.669l-499.288.494v18.506h502.015c4.498-1.007,26.299-6.369,37.364-26.374,14.383-26.004,2.29-61.676-16.808-71.547-15.901-8.218-35.509-.02-45.351-11.093-1.559-1.754-2.493-4.258-2.628-7.861l80.409.375.248,116.5h16.752V30.001Z"/><polygon id="d" class="ae" points="582.75 30.001 636 30.626 636 49.376 601.875 49.376 601.75 166.001 582.75 166.001 582.75 30.001"/><g id="e"><path id="f" class="ae" d="m607.375,166.001c18.94-51.397,37.88-102.794,56.82-154.191,1.628-1.715,11.185-11.453,26.617-11.559,15.779-.108,25.592,9.937,27.188,11.625,21.292,51.375,42.583,102.75,63.875,154.125-33.958-.042-67.917-.083-101.875-.125v-17.875h70.5c-9.516-21.951-19.467-44.237-29.875-66.828-9.951-21.599-19.962-42.699-30-63.297l-62.25,148.125h-21Z"/><path id="g" class="ae" d="m638.5,166.001h19.5l32.125-80.5c4.708,11.542,9.417,23.083,14.125,34.625l-23.106-.003c.077,5.959.154,11.919.231,17.878h54.5l-45.75-104.125-51.625,132.125Z"/></g><polygon id="h" class="ae" points="803.125 30.313 749.875 30.938 749.875 49.688 784 49.688 784.125 166.313 803.125 166.313 803.125 30.313"/><path id="i" class="ae" d="m747,22.001h109v8h-43l.247,137h19.753l.378-117h18.032c.621,9.543-1.666,76.955,2.269,84.503,2.319,14.115,17.608,30.109,31.905,32.062-.001.001,76.415.439,76.415.439v-19.126c-7.205-.427-68.174.766-73.39-.499-5.656-2.181-9.465-5.212-12.018-8.656-4.755-6.415-4.961-13.655-5.006-17.721-.178-15.949-.436-40.35-.125-71.128.104-2.809.733-9.586,5.395-16.391,5.139-7.502,12.078-10.511,14.656-11.484-.001,0,67.489,0,67.489,0L958.624,0h-211.624s0,22,0,22Z"/><g id="j"><path id="k" class="ae" d="m959.375,29.876h-64.375c-1.728.238-5.691,1.036-9.125,4.25-6.305,5.901-5.134,14.616-5,15.5v30.875h63.5v-20.375l-34.625.375c-4.527,1.048-8.612-2.21-8.875-5.875-.25-3.487,2.974-7.149,7.375-7.125l51.125-.125v-17.5Z"/><path id="l" class="ae" d="m959.375,139.376h-64.375c-1.728-.238-5.691-1.036-9.125-4.25-6.305-5.901-5.134-14.616-5-15.5v-30.875h63.5v20.375l-34.625-.375c-4.527-1.048-8.612,2.21-8.875,5.875-.25,3.487,2.974,7.149,7.375,7.125l51.125.125v17.5Z"/></g></g><g id="m"><g id="n"><path id="o" class="ae" d="m1027,.501l18.021.375c.313,42.563.626,85.125.939,127.688.57,2.365,2.317,8.226,7.697,13.312,5.863,5.544,12.469,6.792,14.83,7.125h63.013v18h-69.208c-4.209-.914-13.35-3.492-21.964-11.25-8.428-7.592-11.948-16.177-13.328-20.25V.501Z"/><path id="p" class="ae" d="m1053,.376c5.667-.031,11.333-.062,17-.094v114.679c.181.702.838,2.862,2.914,4.2.709.457,1.405.703,1.965.84h56.121v21h-63.103c-2.09-.654-6.215-2.265-9.932-6.187-2.799-2.955-4.237-6.029-4.966-7.969V.376Z"/></g><g id="q"><path id="r" class="ae" d="m1142.406.251c.291,55.583.582,111.167.874,166.75h17.72c-.042-55.521-.083-111.042-.125-166.562-6.156-.063-12.312-.125-18.469-.188Z"/><path id="s" class="ae" d="m1170.047.501c.291,55.583.582,111.167.874,166.75h17.72c-.042-55.521-.083-111.042-.125-166.562-6.156-.063-12.312-.125-18.469-.188Z"/></g><g id="t"><path id="u" class="ae" d="m1204,167.001h17l.283-139.275c.472-3.423,2.958-6.213,6.233-7.025,2.908-.721,6.022.221,8.122,2.435,20.746,37.121,41.493,74.243,62.239,111.364,1.559,3.312,5.237,4.415,7.491,3.139,1.574-.891,2.449-2.941,2.237-5.106-.724-43.844-1.448-87.688-2.172-131.532h-17.283c.535,24.425,1.07,48.85,1.606,73.275-11.837-20.73-23.674-41.461-35.511-62.191-1.537-1.725-9.668-10.498-23.139-11.239-15.883-.874-25.901,10.148-27.106,11.52v154.636Z"/><path id="v" class="ae" d="m1227,167.001l18,.25.463-74.375,35.918,66.094c1.164,1.616,3.171,3.933,6.295,5.625,2.512,1.36,4.988,1.906,9.721,2.239,4.027.283,9.546.402,16.199-.27,2.093-.294,9.104-1.551,13.979-7.688,1.836-2.312,2.848-4.66,3.425-6.469l-.092-151.608-16.908.385.282,143.291c-.43.888-2.041,3.936-5.53,5.239-4.02,1.502-8.892.074-12.134-3.648-19.479-35.91-38.959-71.82-58.438-107.73-.082-.388-.808-3.545-3.758-4.867-1.492-.669-2.885-.568-3.57-.468h-3.852v134Z"/></g><path id="w" class="ae" d="m1446.153,29.876h-64.375c-1.728.238-5.691,1.036-9.125,4.25-6.305,5.901-5.134,14.616-5,15.5v30.875h63.5v-20.375l-34.625.375c-4.527,1.048-8.612-2.21-8.875-5.875-.25-3.487,2.974-7.149,7.375-7.125l51.125-.125v-17.5Z"/><path id="x" class="ae" d="m1859,139.751c-159.074-.167-318.148-.333-477.222-.5-1.728-.238-5.691-1.036-9.125-4.25-6.305-5.901-5.134-14.616-5-15.5v-30.875h63.5v20.375l-34.625-.375c-4.527-1.048-8.612,2.21-8.875,5.875-.25,3.487,2.974,7.149,7.375,7.125,154.657.458,309.315.917,463.972,1.375v16.75Z"/><path id="y" class="ae" d="m1446,1.001h-74.625c-3.558,1.109-11.386,4.08-18.188,11.643-5.997,6.668-8.281,13.666-9.188,17.25v100.92c.721,4.255,2.692,12.367,8.82,20.437,7.716,10.161,17.488,14.285,21.581,15.75l484.599.188v-15.188l-467.221.376c-1.911.106-13.931.566-23.529-8.876-9.695-9.537-9.338-21.72-9.25-23.612l.562-74.364c-.117-1.35-.738-10.182,5.938-17.024,5.012-5.136,11.114-6.054,12.98-6.262,22.507-.083,45.013-.167,67.52-.25V1.001Z"/></g><g id="z"><path id="aa" class="ae" d="m1144.625,189.876c14.711-4.918,26.873-5.413,33.25-5.625,54.191-1.801,109.657.757,109.657.757,63.7,2.938,85.509,2.488,95.791,18.604,2.281,3.575,4.121,9.43,7.802,21.138,8.34,26.53,5.312,33.366,13.125,46.125,7.421,12.119,12.114,9.154,21.25,22.125,11.928,16.935,13.218,35.178,13.5,40,2.041,34.903-21.343,59.194-25.5,63.375l-5.375,6.5v40.375c-.257,1.559-1.175,5.817-4.875,9.25-1.956,1.814-3.996,2.755-5.375,3.25-3.833.042-7.667.083-11.5.125-1.435-.694-3.098-1.688-4.75-3.125-4.674-4.064-6.367-9.146-7-11.625v-36.875c-26.272,1.873-54.334,3.012-84,3.063-31.205.053-60.651-1.104-88.125-3.063,1-10.833,2-21.667,3-32.5l90.75-.375c6.386-1.363,11.561-2.968,15.25-4.25,11.223-3.9,13.628-6.519,14.625-7.75.917-1.132,4.189-5.296,3.875-11-.327-5.94-4.338-9.799-6.625-12-1.995-1.92-5.605-4.777-13.983-7.261-10.393-3.082-19.003-2.886-20.017-2.864-13.868.306-49.281.068-97.375,0-2.615-9.938-7.102-15.294-10.875-18.375-7.373-6.021-16.181-6.751-22.875-14.75-2.44-2.915-3.729-5.757-3.625-8.75.087-2.479,1.103-4.291,1.5-5,4.982-8.885,20.625-13,20.625-13,21.417-5.634,48.151-6.077,56.5-6.125,20.088-.595,41.47-.557,64,.375,17.576.727,34.388,1.938,50.375,3.5l27,2.25c-4.75-15.167-9.5-30.333-14.25-45.5-6.983-.44-17.486-1.057-30.25-1.625-27.465-1.223-67.153-2.905-116.25-.875-17.184.71-40.643,2.087-68.625,5l-15.5-27.25c3.22-1.648,8.339-4.065,14.875-6.25Zm231.625,117.866c-14.774,0-26.75,8.73-26.75,19.5s11.976,19.5,26.75,19.5,26.75-8.73,26.75-19.5-11.976-19.5-26.75-19.5Z"/><path id="ab" class="ae" d="m731.438,196.126l-15.5,27.25c-27.982-2.913-51.441-4.29-68.625-5-49.097-2.03-88.785-.348-116.25.875-12.764.568-23.267,1.185-30.25,1.625-4.75,15.167-9.5,30.333-14.25,45.5l27-2.25c15.987-1.562,32.799-2.773,50.375-3.5,22.53-.932,43.912-.97,64-.375,8.349.048,35.083.491,56.5,6.125,0,0,15.643,4.115,20.625,13,.397.709,1.413,2.521,1.5,5,.104,2.993-1.185,5.835-3.625,8.75-6.694,7.999-15.502,8.729-22.875,14.75-3.773,3.081-8.26,8.437-10.875,18.375-48.094.068-83.507.306-97.375,0-1.013-.022-9.624-.218-20.017,2.864-8.378,2.484-11.988,5.341-13.983,7.261-2.287,2.201-6.298,6.06-6.625,12-.314,5.704,2.958,9.868,3.875,11,.997,1.231,3.402,3.85,14.625,7.75,3.689,1.282,8.864,2.887,15.25,4.25,30.25.125,60.5.25,90.75.375,1,10.833,2,21.667,3,32.5-27.474,1.959-56.92,3.116-88.125,3.062-29.666-.051-57.728-1.189-84-3.063,0,12.292,0,24.583,0,36.875-.633,2.479-2.326,7.561-7,11.625-1.652,1.437-3.315,2.431-4.75,3.125-3.833-.042-7.667-.083-11.5-.125-1.379-.495-3.419-1.436-5.375-3.25-3.7-3.433-4.618-7.691-4.875-9.25v-40.375s-5.375-6.5-5.375-6.5c-4.157-4.181-27.541-28.472-25.5-63.375.282-4.822,1.572-23.065,13.5-40,9.136-12.971,13.829-10.006,21.25-22.125,7.813-12.759,4.785-19.595,13.125-46.125,3.681-11.709,5.521-17.563,7.802-21.138,10.282-16.117,32.09-15.666,95.791-18.604,0,0,55.466-2.558,109.657-.757,6.377.212,18.539.707,33.25,5.625,6.536,2.185,11.655,4.602,14.875,6.25Zm-273.25,131.116c0,10.77,11.976,19.5,26.75,19.5,14.774,0,26.75-8.73,26.75-19.5,0-10.77-11.976-19.5-26.75-19.5-14.774,0-26.75,8.73-26.75,19.5Z"/><path id="ac" class="af" d="m1142.627,268.001c2.328,15.609-.421,23.007,5.623,34,8.143,14.811,18.78,11.656,30.527,25,16.177,18.376,14.339,45.184,12.723,68.75-.992,14.463-1.984,26.825-10,40.5-8.461,14.434-20.179,22.54-27,26.5l-1.25,69.5c-.179,1.116-.776,3.867-3.062,6.375-1.93,2.117-4.111,3.013-5.188,3.375h-29c-1.454-.416-4.311-1.445-7-4-2.566-2.438-3.738-5.088-4.25-6.5.441-20.942.882-41.884,1.323-62.827-47.942,7.318-103.983,12.689-166.573,12.827-67.807.149-128.114-5.879-179-14,.214,32.763-.049,57.012-.5,64.027-.084,1.307-.353,4.078-2.25,6.473-3.415,4.311-8.95,4.037-9.5,4-9.083-.062-18.167-.125-27.25-.187-3.401-.023-5.623-1.667-7.313-3.813-2.408-3.057-2.14-6.927-1.937-8.5.333-22.5.667-45,1-67.5-7.389-3.294-21.818-11.028-31.75-27-7.693-12.371-8.801-23.582-10.4-39.5-2.657-26.459-5.061-50.396,8.9-67,12.198-14.508,26.649-9.8,36.305-26.097,5.839-9.854,3.833-16.377,6.695-34.403.477-12.987,3.22-31.392,14.957-47.786,17.611-24.599,48.58-35.779,198.534-35.187,114.479.452,169.503,6.971,186.989,35.474,16.6,27.06,19.648,47.5,19.648,47.5Zm-222.627,23.25c66.828-.901,129.219,1.536,186.5,6-.264-7.49-1.425-17.728-5.25-29.25-3.15-9.49-7.195-17.106-10.75-22.75-50.491-5.914-107.71-9.701-170.5-9-51.822.579-99.626,4.128-142.75,9.25-3.391,5.813-7.087,13.345-10,22.5-3.936,12.369-5.063,23.367-5.25,31.5,49.128-4.476,101.927-7.494,158-8.25Z"/><path id="ad" class="ae" d="m1112.838,351.087c2.312,4.069,3.468,10.238,3.468,18.507,0,8.367-1.188,14.643-3.562,18.826s-5.413,6.275-9.115,6.275-6.757-2.108-9.162-6.325c-2.405-4.216-3.608-10.409-3.608-18.58,0-8.301,1.172-14.511,3.515-18.629,2.342-4.117,5.428-6.177,9.256-6.177s6.897,2.035,9.209,6.103Zm-410.52,25.914h12.551l-6.338-26.775-6.212,26.775Zm422.186,55.539c-.877-.63-1.991-1.056-3.339-1.28-1.009-.172-2.983-.26-5.923-.26h-3.242v18h5.387c2.015,0,3.469-.086,4.363-.26,1.17-.223,2.141-.6,2.913-1.131.772-.531,1.401-1.405,1.889-2.622.487-1.217.732-2.876.732-4.978s-.244-3.713-.732-4.838c-.488-1.124-1.17-2.002-2.047-2.632Zm66.996-36.789c-.992,14.463-1.984,26.825-10,40.5-8.461,14.434-20.179,22.54-27,26.5l-1.25,69.5c-.179,1.116-.776,3.867-3.062,6.375-1.93,2.117-4.111,3.013-5.188,3.375h-29c-1.454-.416-4.311-1.445-7-4-2.566-2.438-3.738-5.088-4.25-6.5.441-20.942.882-41.884,1.323-62.827-47.942,7.318-103.983,12.689-166.573,12.827-67.807.149-128.114-5.879-179-14,.214,32.763-.049,57.012-.5,64.027-.084,1.307-.353,4.078-2.25,6.473-3.415,4.311-8.95,4.037-9.5,4-9.083-.062-18.167-.125-27.25-.187-3.401-.023-5.623-1.667-7.313-3.813-2.408-3.057-2.14-6.927-1.937-8.5.333-22.5.667-45,1-67.5-7.389-3.294-21.818-11.028-31.75-27-7.693-12.371-8.801-23.582-10.4-39.5-2.657-26.459-5.061-50.396,8.9-67,12.198-14.508,26.649-9.8,36.305-26.097,5.839-9.854,3.833-16.377,6.695-34.403.477-12.987,3.22-31.392,14.957-47.786,17.611-24.599,48.58-35.779,198.534-35.187,114.479.452,169.503,6.971,186.989,35.474,16.6,27.06,19.648,47.5,19.648,47.5,2.328,15.609-.421,23.007,5.623,34,8.143,14.811,18.78,11.656,30.527,25,16.177,18.376,14.339,45.184,12.723,68.75Zm-429.5-95.779c49.128-4.476,101.927-7.494,158-8.25,66.828-.901,129.219,1.536,186.5,6-.264-7.49-1.425-17.728-5.25-29.25-3.15-9.49-7.195-17.106-10.75-22.75-50.491-5.914-107.71-9.701-170.5-9-51.822.579-99.626,4.128-142.75,9.25-3.391,5.813-7.087,13.345-10,22.5-3.936,12.369-5.063,23.367-5.25,31.5Zm303,34.029v72h9v-72h-9Zm-28,12v60h9v-60h14v-12h-37v12h14Zm-49.403,23.396c0-8.596,1.062-14.814,3.185-18.653,2.123-3.84,4.89-5.759,8.3-5.759,2.468,0,4.565,1.083,6.291,3.248,1.726,2.166,2.86,5.119,3.404,8.859l9.193-3.445c-1.046-5.774-2.615-10.204-4.706-13.289-3.515-5.217-8.085-7.825-13.712-7.825-6.443,0-11.641,3.322-15.595,9.967-3.953,6.645-5.93,15.971-5.93,27.98,0,11.354,1.966,20.303,5.898,26.849s8.953,9.819,15.061,9.819c4.937,0,9.011-1.911,12.222-5.734,3.211-3.821,5.507-9.671,6.888-17.546l-9.006-4.479c-.773,5.284-2.05,9.155-3.828,11.616-1.777,2.461-3.901,3.691-6.369,3.691-3.347,0-6.066-1.936-8.158-5.808s-3.138-10.368-3.138-19.491Zm-255.677,36.604l-18.379-72h-9.8l-17.878,72h10.115l3.706-16h17.95l3.921,16h10.365Zm8.08,20h-7v28h7v-28Zm5.973-21.002c2.289,1.591,5.649,2.387,10.081,2.387,3.671,0,6.646-.73,8.925-2.19,2.279-1.459,4.099-3.421,5.46-5.882,1.361-2.461,2.295-5.48,2.801-9.056s.76-9.696.76-18.358v-37.898h-10v39.916c0,5.709-.135,9.795-.405,12.256-.27,2.461-1.071,4.536-2.402,6.226-1.331,1.69-3.307,2.535-5.927,2.535-2.579,0-4.612-.894-6.098-2.683-1.487-1.788-2.429-4.159-2.823-7.112-.229-1.837-.343-5.856-.343-12.059v-39.079h-9v38.488c0,8.072.306,14.176.918,18.31.422,2.789,1.297,5.456,2.627,7.998,1.329,2.543,3.138,4.61,5.428,6.202Zm30.027,21.002h-7v18.699l-15.273-18.699h-6.727v28h7v-18.259l15.043,18.259h6.957v-28Zm38.161,19.188l-7.132-1.721c-.613,2.029-1.624,3.516-3.032,4.461-1.409.945-3.09,1.417-5.045,1.417-2.651,0-4.805-.743-6.461-2.229-1.657-1.487-2.485-3.981-2.485-7.484,0-3.302.841-5.689,2.522-7.163,1.681-1.475,3.873-2.212,6.573-2.212,1.955,0,3.616.416,4.982,1.248,1.367.831,2.265,1.965,2.696,3.401l7.281-1.323c-.829-2.217-2.071-3.918-3.728-5.103-2.784-2.003-6.403-3.005-10.86-3.005-5.103,0-9.22,1.275-12.351,3.827-3.131,2.552-4.697,6.133-4.697,10.744,0,4.36,1.557,7.797,4.672,10.311,3.114,2.514,7.09,3.771,11.928,3.771,3.91,0,7.136-.734,9.679-2.202,2.543-1.468,4.361-3.714,5.455-6.737Zm2.839-111.188h-37v12h14v60h9v-60h14v-12Zm37.319,105.839c0-4.511-1.611-8.033-4.833-10.565-3.223-2.533-7.518-3.799-12.885-3.799-2.966,0-5.583.365-7.853,1.096-1.707.542-3.276,1.374-4.709,2.495s-2.563,2.388-3.392,3.799c-1.11,1.915-1.665,4.284-1.665,7.106,0,4.41,1.598,7.872,4.796,10.386,3.197,2.514,7.505,3.771,12.922,3.771,5.351,0,9.625-1.264,12.823-3.79,3.197-2.525,4.796-6.025,4.796-10.498Zm3.754-42.561c4.037-6.578,6.056-15.692,6.056-27.341,0-11.747-2.035-20.918-6.103-27.514s-9.491-9.893-16.269-9.893c-3.745,0-7.049.952-9.915,2.854-2.155,1.411-4.137,3.576-5.946,6.497-1.81,2.921-3.237,6.218-4.283,9.893-1.402,4.988-2.103,11.156-2.103,18.506,0,11.485,2.019,20.5,6.056,27.046s9.476,9.819,16.316,9.819c6.756,0,12.153-3.289,16.19-9.868Zm35.026,56.722l-4.495-5.462c-1.774-2.177-3.185-3.693-4.231-4.546-1.047-.854-2.373-1.636-3.981-2.35,3.231-.356,5.659-1.219,7.283-2.588,1.624-1.369,2.436-3.104,2.436-5.205,0-1.655-.536-3.125-1.607-4.412-1.072-1.286-2.499-2.18-4.282-2.683-1.783-.502-4.642-.754-8.576-.754h-15.646v28h7v-12h1.419c1.608,0,2.782.107,3.524.323.741.216,1.442.615,2.104,1.197.662.582,1.892,1.99,3.689,4.225l5.061,6.255h10.302Zm31.396-19.602c0-2.172-.694-3.945-2.081-5.316-1.387-1.372-3.109-2.263-5.166-2.673-1.338-.272-4.211-.409-8.618-.409h-11.63v27h7v-10h4.972c3.281,0,5.786-.13,7.517-.391,1.273-.211,2.526-.643,3.758-1.294,1.232-.651,2.248-1.548,3.048-2.691.799-1.142,1.2-2.551,1.2-4.227Zm3.782-28.398l-18.379-72h-9.8l-17.878,72h10.115l3.706-16h17.95l3.921,16h10.365Zm36.327,33.839c0-4.511-1.611-8.033-4.832-10.565-3.223-2.533-7.518-3.799-12.885-3.799-2.967,0-5.584.365-7.854,1.096-1.707.542-3.277,1.374-4.709,2.495-1.434,1.121-2.564,2.388-3.393,3.799-1.109,1.915-1.664,4.284-1.664,7.106,0,4.41,1.598,7.872,4.795,10.386s7.506,3.771,12.922,3.771c5.352,0,9.627-1.264,12.824-3.79,3.197-2.525,4.795-6.025,4.795-10.498Zm5.396-105.839h-9v39.916c0,5.709-.136,9.795-.406,12.256-.27,2.461-1.072,4.536-2.402,6.226-1.33,1.69-3.307,2.535-5.927,2.535-2.579,0-4.612-.894-6.1-2.683-1.488-1.788-2.427-4.159-2.824-7.112-.229-1.837-.342-5.856-.342-12.059v-39.079h-10v38.488c0,8.072.305,14.176.918,18.31.422,2.789,1.297,5.456,2.627,7.998,1.328,2.543,3.139,4.61,5.428,6.202,2.289,1.591,5.649,2.387,10.08,2.387,3.672,0,6.648-.73,8.927-2.19,2.278-1.459,4.098-3.421,5.459-5.882,1.361-2.461,2.295-5.48,2.802-9.056s.759-9.696.759-18.358v-37.898Zm32.17,120l-4.233-5.462c-1.671-2.177-3-3.693-3.985-4.546-.985-.854-2.234-1.636-3.748-2.35,3.043-.356,5.329-1.219,6.859-2.588,1.529-1.369,2.294-3.104,2.294-5.205,0-1.655-.505-3.125-1.514-4.412-1.009-1.286-2.353-2.18-4.032-2.683-1.679-.502-4.372-.754-8.076-.754h-14.734v28h7v-12h1.547c1.754,0,3.033.107,3.842.323.807.216,1.572.615,2.295,1.197.721.582,2.062,1.99,4.021,4.225l5.518,6.255h6.947Zm38.975,0l-14.741-28h-7.861l-14.339,28h8.481l2.866-6h13.882l3.033,6h8.679Zm24.855-28h-29v5h11v23h7v-23h11v-5Zm33,23h-21v-7h19v-5h-19v-6h20v-5h-27v28h28v-5Zm4.66-41.854c6.757,0,12.153-3.289,16.19-9.868,4.037-6.578,6.056-15.692,6.056-27.341,0-11.747-2.034-20.918-6.103-27.514s-9.491-9.893-16.269-9.893c-3.745,0-7.05.952-9.915,2.854-2.155,1.411-4.137,3.576-5.946,6.497s-3.237,6.218-4.283,9.893c-1.401,4.988-2.102,11.156-2.102,18.506,0,11.485,2.018,20.5,6.056,27.046,4.036,6.546,9.476,9.819,16.315,9.819Zm32.204,33.121c0-2.623-.402-4.829-1.205-6.618-.803-1.789-1.976-3.301-3.516-4.537-1.541-1.235-3.39-2.094-5.549-2.578-1.608-.357-3.944-.535-7.007-.535h-13.586v28h13.988c2.745,0,4.938-.197,6.58-.592,2.193-.535,3.935-1.28,5.224-2.234,1.708-1.261,3.022-2.909,3.943-4.947.754-1.668,1.13-3.654,1.13-5.959Zm34.136-106.267h-9v48.082l-18.919-48.082h-9.081v72h9v-46.952l18.635,46.952h9.365v-72Zm-288.206,100.425c0-.928-.326-1.678-.977-2.249-.652-.571-1.571-.931-2.759-1.082-.594-.062-2.375-.094-5.344-.094h-5.715v7h5.418c3.513,0,5.706-.113,6.581-.339.874-.226,1.559-.614,2.053-1.166.495-.552.742-1.242.742-2.07Zm34.407-1.813c-.82-.766-1.886-1.239-3.2-1.42-.894-.128-2.689-.193-5.386-.193h-3.616v8h4.096c2.95,0,4.922-.147,5.917-.442.994-.294,1.774-.756,2.339-1.384.669-.744.941-1.632.818-2.662-.086-.721-.438-1.404-.969-1.899Zm76.594,1.813c0-.928-.327-1.678-.978-2.249-.651-.571-1.57-.931-2.758-1.082-.594-.062-2.375-.094-5.343-.094h-5.716v7h5.418c3.514,0,5.707-.113,6.581-.339.874-.226,1.558-.614,2.053-1.166.495-.552.743-1.242.743-2.07Zm-94.12-57.425h12.551l-6.338-26.775-6.212,26.775Zm-54.707,55.6c-1.831-1.562-4.262-2.344-7.293-2.344s-5.476.791-7.331,2.372-2.783,3.966-2.783,7.153c0,3.138.953,5.517,2.858,7.135,1.905,1.62,4.324,2.429,7.256,2.429s5.338-.803,7.219-2.409c1.88-1.606,2.82-4.017,2.82-7.229,0-3.175-.916-5.544-2.746-7.106Zm-2.117-87.616c-3.828,0-6.914,2.06-9.256,6.177-2.343,4.118-3.515,10.328-3.515,18.629,0,8.171,1.203,14.364,3.608,18.58,2.405,4.217,5.46,6.325,9.162,6.325s6.741-2.092,9.115-6.275c2.374-4.184,3.561-10.459,3.561-18.826,0-8.269-1.156-14.438-3.467-18.507-2.312-4.067-5.381-6.103-9.209-6.103Zm175.617,98.017h9.94l-5.02-10.281-4.921,10.281Zm-63.214-10.4c-1.83-1.562-4.262-2.344-7.293-2.344s-5.477.791-7.332,2.372-2.783,3.966-2.783,7.153c0,3.138.953,5.517,2.859,7.135,1.904,1.62,4.322,2.429,7.256,2.429s5.338-.803,7.219-2.409,2.82-4.017,2.82-7.229c0-3.175-.916-5.544-2.746-7.106Z"/></g></svg>